<?xml version="1.0" encoding="UTF-8"?>
<svg id="Layer_1" xmlns="http://www.w3.org/2000/svg" version="1.1" viewBox="0 500 3840 1160">
  <!-- Generator: Adobe Illustrator 29.8.5, SVG Export Plug-In . SVG Version: 2.1.1 Build 2)  -->
  <path d="M211.4377,902.4461l-77.9418,81.2587v146.7626H0v-580.4175h133.4959v271.1379l257.0422-271.1379h149.2501l-240.4586,258.7005,254.5543,321.717h-156.7126l-185.7336-228.0212Z"/>
  <path d="M679.0777,550.0499h134.3251v580.4175h-134.3251v-580.4175Z"/>
  <path d="M1548.8633,550.0499v580.4175h-110.2794l-289.3795-352.3963v352.3963h-132.6668v-580.4175h111.1084l288.5504,352.3963v-352.3963h132.6668Z"/>
  <path d="M2201.4144,1022.6756v107.7918h-449.409v-580.4175h438.6296v107.7918h-305.1335v126.0336h269.4793v104.4752h-269.4793v134.3251h315.9128Z"/>
  <path d="M2494.0999,659.5002h-185.7336v-109.4503h505.7926v109.4503h-185.7336v470.9672h-134.3254v-470.9672Z"/>
  <path d="M2951.7951,550.0499h134.3254v580.4175h-134.3254v-580.4175Z"/>
  <path d="M3252.7714,840.2586c0-174.9542,134.3254-300.1588,315.0838-300.1588,100.3293,0,184.075,36.4834,238.8003,102.8169l-86.2333,79.6001c-38.9713-44.775-87.8919-67.9917-145.9338-67.9917-108.6211,0-185.7336,76.2835-185.7336,185.7336s77.1125,185.7336,185.7336,185.7336c58.0419,0,106.9625-23.2168,145.9338-68.8208l86.2333,79.6001c-54.7253,67.1625-138.471,103.6459-239.6294,103.6459-179.9294,0-314.2548-125.2043-314.2548-300.1588Z"/>
  <path d="M373.138,1194.1887v419.7155h-77.9471v-179.8779H78.138v179.8779H.1907v-419.7155h77.9473v173.2827h217.0529v-173.2827h77.9471Z"/>
  <path d="M631.5641,1404.0464c0-124.1159,95.935-215.8538,226.047-215.8538s226.0467,91.1383,226.0467,215.8538-95.935,215.8538-226.0467,215.8538-226.047-91.7374-226.047-215.8538ZM1005.111,1404.0464c0-85.7419-62.9572-147.5-147.5-147.5s-147.5002,61.7581-147.5002,147.5,62.9574,147.5005,147.5002,147.5005,147.5-61.7581,147.5-147.5005Z"/>
  <path d="M1306.7067,1569.5346l26.9818-60.5588c33.5773,26.9815,86.9412,46.1686,138.5061,46.1686,65.3558,0,92.9372-23.3846,92.9372-54.5632,0-90.5386-249.4311-31.1786-249.4311-187.0733,0-67.7542,53.9633-125.3152,169.0854-125.3152,50.3659,0,103.1302,13.1912,139.7054,37.1749l-24.5834,60.559c-37.7744-22.185-79.1464-32.9776-115.7217-32.9776-64.7561,0-91.1383,25.1828-91.1383,56.9614,0,89.3393,248.8317,31.1786,248.8317,185.2743,0,67.1545-54.5632,124.7155-169.6853,124.7155-65.3556,0-130.7114-20.3858-165.4879-50.3656Z"/>
  <path d="M1974.0589,1260.1439h-139.1058v-65.9552h356.1589v65.9552h-139.1058v353.7603h-77.9473v-353.7603Z"/>
  <path d="M2425.5489,1194.1887h77.9473v419.7155h-77.9473v-419.7155Z"/>
  <path d="M3165.4407,1194.1887v419.7155h-64.1567l-231.4434-284.2072v284.2072h-77.3477v-419.7155h64.1567l231.4434,284.2076v-284.2076h77.3477Z"/>
  <path d="M3740.4517,1399.2497h73.7502v167.2871c-43.7704,35.3757-104.9289,53.3634-164.2889,53.3634-130.1119,0-226.047-90.5386-226.047-215.8538s95.935-215.8538,227.2463-215.8538c70.1523,0,128.9126,23.3843,168.486,68.3538l-49.1668,47.9675c-32.9776-32.9776-70.752-47.9675-115.7217-47.9675-89.3393,0-152.2967,60.5593-152.2967,147.5,0,85.1422,62.9574,147.5005,151.6971,147.5005,29.9798,0,59.36-5.9961,86.3415-21.5856v-130.7116Z"/>
</svg>
