<?xml version="1.0" encoding="UTF-8"?>
<svg id="Layer_1" xmlns="http://www.w3.org/2000/svg" version="1.1" xmlns:xlink="http://www.w3.org/1999/xlink" viewBox="0 560 3840 1040">
  <!-- Generator: Adobe Illustrator 29.8.5, SVG Export Plug-In . SVG Version: 2.1.1 Build 2)  -->
  <defs>
    <style>
      .st0 {
        fill: url(#New_Gradient_Swatch_copy);
      }

      .st1 {
        fill: #100e1d;
      }
    </style>
    <linearGradient id="New_Gradient_Swatch_copy" data-name="New Gradient Swatch copy" x1="0" y1="1080.203" x2="931.1367" y2="1080.203" gradientUnits="userSpaceOnUse">
      <stop offset="0" stop-color="#5a4fcf"/>
      <stop offset=".8" stop-color="#a29bfe"/>
    </linearGradient>
  </defs>
  <g>
    <path class="st1" d="M1320.3904,956.962l-53.9867,56.2842v101.6557h-92.4665v-402.0287h92.4665v187.8048l178.0414-187.8048h103.3787l-166.5547,179.19,176.3182,222.8387h-108.5477l-128.6492-157.9399Z"/>
    <path class="st1" d="M1644.3032,712.8732h93.0409v402.0287h-93.0409v-402.0287Z"/>
    <path class="st1" d="M2246.764,712.8732v402.0287h-76.3855l-200.4399-244.0888v244.0888h-91.8923v-402.0287h76.9597l199.8657,244.0888v-244.0888h91.8923Z"/>
    <path class="st1" d="M2698.7563,1040.2394v74.6624h-311.285v-402.0287h303.8187v74.6624h-211.352v87.2977h186.656v72.3652h-186.656v93.0409h218.8184Z"/>
    <path class="st1" d="M2901.4861,788.6844h-128.6492v-75.8112h350.3394v75.8112h-128.6492v326.2174h-93.0411v-326.2174Z"/>
    <path class="st1" d="M3218.5107,712.8732h93.0411v402.0287h-93.0411v-402.0287Z"/>
    <path class="st1" d="M3426.9832,913.8875c0-121.1828,93.0411-207.9063,218.2442-207.9063,69.4935,0,127.5004,25.2704,165.4061,71.2165l-59.7299,55.1354c-26.9936-31.0136-60.8787-47.0948-101.0817-47.0948-75.2368,0-128.6492,52.8381-128.6492,128.6492s53.4123,128.6492,128.6492,128.6492c40.203,0,74.088-16.0812,101.0817-47.669l59.7299,55.1354c-37.9057,46.5204-95.9126,71.7908-165.9803,71.7908-124.6289,0-217.6699-86.7233-217.6699-207.9063Z"/>
  </g>
  <g>
    <path class="st1" d="M1432.3928,1159.0387v290.7177h-53.9904v-124.5932h-150.3426v124.5932h-53.9906v-290.7177h53.9906v120.025h150.3426v-120.025h53.9904Z"/>
    <path class="st1" d="M1611.3927,1304.3975c0-85.9694,66.4498-149.5121,156.5724-149.5121s156.5722,63.1273,156.5722,149.5121-66.4498,149.5121-156.5722,149.5121-156.5724-63.5423-156.5724-149.5121ZM1870.1316,1304.3975c0-59.3895-43.6076-102.1665-102.1665-102.1665s-102.1667,42.777-102.1667,102.1665,43.6077,102.1668,102.1667,102.1668,102.1665-42.777,102.1665-102.1668Z"/>
    <path class="st1" d="M2079.0332,1419.0236l18.6891-41.9463c23.2574,18.6889,60.2202,31.9788,95.9369,31.9788,45.269,0,64.3734-16.1974,64.3734-37.7935,0-62.712-172.7695-21.596-172.7695-129.5771,0-46.9302,37.3779-86.8001,117.1177-86.8001,34.8861,0,71.4335,9.1369,96.7676,25.7494l-17.0278,41.9465c-26.1646-15.3666-54.8211-22.8421-80.1551-22.8421-44.8536,0-63.1273,17.443-63.1273,39.4545,0,61.8813,172.3543,21.596,172.3543,128.3311,0,46.5149-37.7935,86.3848-117.5332,86.3848-45.2688,0-90.5378-14.1203-114.6259-34.886Z"/>
    <path class="st1" d="M2541.2775,1204.7228h-96.3522v-45.6842h246.695v45.6842h-96.3522v245.0336h-53.9906v-245.0336Z"/>
    <path class="st1" d="M2854.004,1159.0387h53.9906v290.7177h-53.9906v-290.7177Z"/>
    <path class="st1" d="M3366.4932,1159.0387v290.7177h-44.4384l-160.3102-196.8573v196.8573h-53.5752v-290.7177h44.4384l160.3102,196.8576v-196.8576h53.5752Z"/>
    <path class="st1" d="M3764.7771,1301.0751h51.0834v115.8721c-30.3178,24.5032-72.6794,36.9624-113.7954,36.9624-90.1226,0-156.5724-62.712-156.5724-149.5121s66.4498-149.5121,157.4031-149.5121c48.5913,0,89.2919,16.1973,116.7025,47.3456l-34.0556,33.2249c-22.8421-22.8421-49.0067-33.2249-80.1551-33.2249-61.8813,0-105.489,41.9467-105.489,102.1665,0,58.9741,43.6077,102.1668,105.0736,102.1668,20.7656,0,41.1159-4.1532,59.8048-14.9514v-90.5379Z"/>
  </g>
  <path class="st0" d="M931.1367,1080.203c0,143.7437-65.1585,272.255-167.533,357.6567-10.1929-23.2512-21.0713-46.0486-32.7085-68.3026-57.3023-109.5804-132.0691-206.6432-222.65-289.1851,26.7654-24.6418,52.1306-50.334,75.9885-77.0306,75.1515-84.0907,135.3957-178.1407,179.85-280.3892,102.0968,85.4027,167.053,213.7331,167.053,357.2508ZM388.885,1176.6304c-23.1129,16.3293-46.9529,32.0151-71.5232,46.9951-92.7105,56.5226-178.5504,92.8556-239.3164,114.6533,83.468,125.0845,225.8635,207.4926,387.5229,207.4926,58.8053,0,115.0498-10.9318,166.851-30.8256-55.0591-132.5494-136.4904-245.8192-243.5343-338.3154ZM632.6662,645.554c-51.8692-19.954-108.1996-30.9194-167.0979-30.9194C208.4421,614.6346,0,823.0766,0,1080.203,0,1121.5756,5.4244,1161.6765,15.5521,1199.8627c53.7827-18.6082,137.3246-52.546,227.3924-108.0066,183.988-113.294,314.8461-263.2666,389.7218-446.3021Z"/>
</svg>
